<?xml version="1.0" standalone="no"?>
<!DOCTYPE svg PUBLIC "-//W3C//DTD SVG 20010904//EN"
 "http://www.w3.org/TR/2001/REC-SVG-20010904/DTD/svg10.dtd">
<svg version="1.0" xmlns="http://www.w3.org/2000/svg"
 width="257.000000pt" height="262.000000pt" viewBox="0 0 257.000000 262.000000"
 preserveAspectRatio="xMidYMid meet">

<g transform="translate(0.000000,262.000000) scale(0.100000,-0.100000)"
fill="#ffffffff" stroke="none">
<path d="M197 2569 c-22 -13 -47 -68 -47 -104 0 -20 -5 -25 -23 -25 -40 0 -57
-29 -57 -98 0 -69 21 -102 64 -102 21 0 24 -6 29 -54 6 -65 35 -124 77 -160
51 -43 38 -60 -50 -66 -79 -5 -102 -14 -137 -52 -46 -49 -53 -86 -53 -273 0
-231 -17 -215 219 -215 l178 0 6 -142 c5 -155 22 -228 76 -344 l30 -64 -220 0
c-223 0 -249 -4 -276 -39 -9 -12 -12 -112 -13 -389 l0 -373 25 -25 24 -24 252
2 c250 3 252 3 260 25 6 16 3 27 -7 38 -13 13 -52 15 -245 15 l-229 0 0 345 0
345 110 0 110 0 0 -143 c0 -127 2 -146 18 -160 25 -23 58 -21 98 4 l34 21 29
-21 c36 -26 73 -27 94 -3 14 15 17 42 17 160 l0 142 110 0 110 0 0 -345 0
-345 -59 0 c-41 0 -65 -5 -75 -16 -19 -18 -19 -20 -6 -45 9 -16 22 -19 89 -19
64 0 83 4 105 21 l26 20 0 220 c0 120 3 219 6 219 3 0 42 -13 87 -29 118 -41
218 -55 350 -48 222 12 393 87 557 244 l85 81 43 -46 c37 -41 42 -52 42 -94
l0 -48 -65 0 c-72 0 -105 -13 -147 -57 -43 -45 -48 -73 -48 -267 0 -164 2
-185 18 -199 17 -15 56 -17 358 -17 291 0 343 2 362 16 21 15 22 20 22 195 0
192 -7 228 -53 277 -36 39 -72 52 -142 52 l-65 0 0 53 c0 41 4 55 19 64 11 7
32 34 48 60 23 40 28 61 31 140 6 126 -9 175 -69 235 -39 39 -56 49 -108 59
l-61 13 0 116 c0 63 -5 135 -10 160 -6 25 -12 55 -15 68 l-5 22 190 0 c189 0
191 0 215 25 28 27 29 39 14 136 -13 74 -26 94 -58 84 -26 -8 -30 -24 -20 -76
4 -24 8 -56 9 -71 l0 -28 -314 0 c-173 0 -317 3 -319 8 -5 7 57 407 68 443 9
29 54 78 86 94 38 20 275 21 323 1 54 -23 85 -72 101 -167 16 -92 22 -102 56
-97 23 3 24 6 21 67 -1 35 -7 82 -13 105 -14 52 -61 120 -99 143 -26 15 -29
21 -24 54 6 38 -16 96 -40 105 -11 4 -10 17 5 65 41 131 31 139 -169 139 -139
0 -154 -2 -172 -20 -25 -25 -25 -23 1 -104 l20 -67 -26 -31 c-22 -26 -26 -39
-23 -80 1 -26 0 -48 -4 -48 -4 0 -24 -15 -44 -32 -40 -36 -84 -118 -84 -159 0
-14 -2 -28 -5 -31 -3 -3 -36 14 -73 38 -223 147 -542 176 -802 74 -75 -30
-177 -91 -232 -140 -40 -34 -51 -39 -67 -31 -11 6 -49 11 -85 11 -62 0 -66 1
-66 23 0 13 14 36 31 53 42 39 69 99 69 157 0 45 1 47 28 47 54 0 85 71 65
150 -7 27 -16 37 -41 45 -26 7 -33 16 -38 45 -8 42 -22 71 -43 87 -21 16 -348
17 -374 2z m333 -76 c0 -5 3 -18 6 -30 6 -23 5 -23 -88 -23 -148 0 -218 10
-218 30 0 9 3 20 7 23 9 10 293 9 293 0z m1737 -7 c-3 -8 -11 -32 -18 -55
l-12 -41 -73 0 -72 0 -16 47 c-9 26 -16 50 -16 55 0 4 48 8 106 8 87 0 105 -3
101 -14z m-1647 -146 c0 -19 -7 -20 -235 -20 -228 0 -235 1 -235 20 0 19 7 20
235 20 228 0 235 -1 235 -20z m1668 -52 c-3 -22 -7 -23 -125 -26 l-123 -3 0
26 0 25 126 0 c124 0 125 0 122 -22z m-1758 -81 c0 -49 -39 -118 -80 -139 -97
-50 -210 19 -210 130 l0 42 145 0 145 0 0 -33z m870 -107 c129 -21 269 -79
365 -153 22 -17 41 -32 43 -33 2 -1 -6 -55 -18 -121 -27 -159 -26 -188 5 -218
23 -24 30 -25 139 -25 l114 0 11 -32 c21 -67 33 -185 27 -270 -6 -87 -6 -88
-47 -125 -58 -52 -79 -102 -79 -190 0 -69 -1 -73 -47 -133 -85 -113 -223 -212
-365 -261 -199 -67 -412 -59 -590 23 l-68 31 0 112 c0 160 1 159 -168 163
l-129 4 -41 86 c-61 129 -91 283 -77 402 l7 60 121 0 c167 0 157 -14 157 222
0 154 -3 195 -16 220 -16 30 -15 32 7 50 193 156 425 223 649 188z m-980 -135
c0 -5 3 -19 5 -30 3 -11 -5 -37 -18 -59 l-24 -38 -21 35 c-12 19 -22 50 -22
68 0 33 1 34 40 34 22 0 40 -4 40 -10z m-137 -112 l19 -33 -41 0 c-40 0 -41 1
-41 36 0 31 3 35 22 32 12 -2 30 -18 41 -35z m265 0 c3 -32 2 -33 -37 -33 -46
0 -47 0 -25 41 21 42 58 37 62 -8z m-408 -163 l0 -190 -30 0 -30 0 0 159 c0
157 0 160 26 190 14 17 28 31 30 31 2 0 4 -85 4 -190z m536 135 c10 -24 14
-77 14 -180 l0 -145 -35 0 -35 0 0 190 c0 190 0 191 21 180 11 -7 27 -27 35
-45z m-136 -205 l0 -120 -160 0 -160 0 0 120 0 120 160 0 160 0 0 -120z m1706
-536 c58 -28 74 -67 74 -181 0 -87 -3 -104 -23 -134 -60 -90 -172 -88 -241 5
-29 38 -31 204 -3 254 36 66 120 90 193 56z m-1736 -404 l0 -110 -34 17 c-32
15 -37 15 -60 0 -14 -10 -28 -17 -31 -17 -3 0 -5 50 -5 110 l0 110 65 0 65 0
0 -110z m1710 -89 c0 -29 -6 -44 -21 -55 -34 -23 -59 -2 -59 51 l0 43 40 0
c40 0 40 0 40 -39z m-106 -119 c15 -18 15 -20 -3 -36 -19 -17 -21 -16 -58 18
l-38 35 41 1 c27 0 46 -6 58 -18z m221 10 c-6 -4 -25 -20 -42 -36 -32 -29 -33
-29 -53 -11 -19 17 -19 19 -4 37 12 12 31 18 63 18 25 0 41 -3 36 -8z m-322
-95 c72 -61 78 -63 108 -47 18 10 19 6 19 -115 l0 -125 -136 0 -135 0 3 158
c2 133 6 162 21 186 16 24 21 26 35 14 9 -8 48 -40 85 -71z m456 47 c7 -15 11
-85 11 -179 l0 -155 -130 0 -130 0 0 120 0 120 23 -5 c23 -6 50 11 157 103 39
33 52 32 69 -4z"/>
<path fill="#c42626ff" d="M1080 1659 c-222 -70 -235 -90 -190 -275 44 -184 148 -343 294 -451
79 -58 113 -58 192 0 67 50 135 120 183 190 100 146 160 383 115 452 -17 27
-40 36 -229 95 -72 22 -149 40 -170 39 -22 -1 -110 -23 -195 -50z m354 -65
c198 -61 188 -55 181 -112 -10 -77 -44 -182 -83 -256 -38 -73 -160 -211 -218
-247 -33 -20 -35 -20 -62 -3 -89 58 -201 193 -247 299 -38 85 -70 230 -56 253
5 9 293 107 325 111 4 1 76 -20 160 -45z"/>
<path fill="#35a029ff" d="M1044 1485 c-23 -36 -15 -123 16 -168 30 -44 90 -84 140 -92 l39 -7
3 -55 c3 -63 24 -87 56 -67 12 8 18 27 20 67 l3 55 39 7 c99 17 170 101 170
202 0 64 -19 83 -83 83 -59 0 -94 -14 -133 -51 l-32 -31 -26 27 c-36 36 -86
55 -145 55 -43 0 -53 -4 -67 -25z m144 -73 c47 -31 70 -112 32 -112 -30 0 -78
27 -91 51 -16 31 -28 77 -22 83 8 8 54 -5 81 -22z m268 14 c3 -7 -2 -30 -10
-50 -25 -60 -126 -105 -126 -56 0 47 45 100 95 113 33 8 35 8 41 -7z"/>
<path d="M2133 2093 c-4 -9 -20 -29 -37 -44 -24 -22 -31 -35 -31 -67 0 -50 20
-73 86 -101 27 -12 49 -27 49 -34 0 -33 -51 -48 -91 -27 -13 8 -25 7 -40 0
-29 -16 -21 -52 17 -70 17 -8 35 -24 40 -35 11 -25 37 -30 55 -11 8 8 31 33
52 55 31 33 37 47 37 84 0 49 -26 80 -92 110 -63 28 -43 58 23 37 35 -12 42
-11 56 2 20 21 11 44 -26 66 -17 9 -32 25 -35 34 -6 23 -54 24 -63 1z"/>
</g>
</svg>
